<svg version="1.1" id="Layer_1" xmlns="http://www.w3.org/2000/svg" xmlns:xlink="http://www.w3.org/1999/xlink" x="0px" y="0px"
	 width="100%" viewBox="0 0 833 270" enable-background="new 0 0 833 270" xml:space="preserve">
<path fill="#020102" opacity="1.000000" stroke="none" 
	d="
M543.000000,271.000000 
	C362.040894,271.000000 181.581772,271.000000 1.061324,271.000000 
	C1.061324,181.061310 1.061324,91.122551 1.061324,1.091902 
	C278.542480,1.091902 556.084961,1.091902 833.813721,1.091902 
	C833.813721,90.999695 833.813721,180.999802 833.813721,271.000000 
	C737.122498,271.000000 640.311218,271.000000 543.000000,271.000000 
M735.509766,181.539459 
	C735.509766,181.539459 735.576843,181.658279 735.326172,182.320618 
	C735.898682,182.881638 736.471252,183.442642 737.460632,184.519714 
	C747.992554,198.705032 762.795959,202.554794 779.410034,201.468491 
	C790.048401,200.772903 799.694336,197.333817 806.418457,188.463837 
	C808.710938,185.439804 810.213440,181.817032 812.384094,177.915665 
	C803.903503,176.586121 796.729492,175.375748 789.521179,174.425735 
	C788.466431,174.286713 787.130615,175.222641 786.124634,175.941010 
	C779.614502,180.589737 767.665894,180.694672 761.742432,175.473648 
	C759.289673,173.311783 757.944458,169.893326 756.095520,167.046356 
	C756.512634,166.555862 756.929688,166.065384 757.346802,165.574890 
	C776.419800,165.574890 795.492737,165.574890 814.437561,165.574890 
	C814.715027,164.405106 814.925232,163.926712 814.928223,163.447006 
	C815.029602,147.221878 809.804199,133.529724 795.180298,125.095177 
	C780.475464,116.614014 765.216553,116.921745 750.347961,124.710495 
	C743.125854,128.493698 737.157654,133.989502 733.631409,142.343582 
	C733.502502,142.959503 733.373596,143.575424 733.002441,144.000610 
	C733.002441,144.000610 733.248352,144.186813 732.535706,144.399628 
	C729.054626,151.653458 728.222046,159.442764 729.396667,167.171005 
	C730.044312,171.432465 732.688538,175.390488 734.512573,179.603073 
	C734.512573,179.603073 734.554443,179.739105 734.278687,180.323395 
	C734.662170,180.692093 735.045593,181.060776 735.509766,181.539459 
M21.064312,117.994354 
	C21.064312,117.994354 21.170574,118.056686 20.419693,118.373184 
	C17.613363,131.892883 17.643856,145.442596 20.051409,159.005585 
	C20.175476,159.704514 20.761816,160.321365 21.050816,160.977936 
	C21.050816,160.977936 21.088247,160.904831 20.956785,161.719681 
	C21.400158,163.187241 21.843531,164.654816 22.395187,166.292801 
	C22.395187,166.292801 22.375477,166.493744 22.104660,167.239059 
	C22.460295,167.863358 22.815929,168.487671 23.293875,169.326477 
	C23.293875,169.326477 23.295708,169.573395 23.039219,170.316147 
	C23.409197,170.930222 23.779175,171.544281 24.364168,172.875214 
	C31.243326,195.012070 44.199451,213.029068 63.253181,225.895584 
	C98.316269,249.572815 135.660080,252.270630 173.896606,234.314819 
	C196.867050,223.527939 213.245773,205.769104 223.346390,182.342453 
	C224.751617,179.083298 224.491272,177.320221 220.852875,175.895142 
	C216.079803,174.025665 211.569077,171.479050 206.969223,169.176331 
	C199.422699,165.398560 199.437958,165.386597 195.201294,172.877335 
	C194.466309,174.176865 193.638229,175.423630 192.857986,176.697723 
	C173.443878,208.399765 137.577377,222.161224 102.182343,210.881241 
	C76.458382,202.683304 60.761955,184.499146 53.649120,158.469635 
	C53.093723,150.966675 52.332985,143.471146 52.061062,135.957932 
	C51.901649,131.553360 52.520885,127.120605 52.815010,121.927238 
	C56.057606,110.332405 61.316154,99.795059 69.039719,90.496231 
	C79.307594,78.134163 92.702606,71.049454 108.895752,67.079620 
	C110.718788,66.979424 112.545944,66.745453 114.364182,66.801392 
	C124.005272,67.097969 133.644119,67.467354 144.080292,67.837769 
	C144.905777,67.868637 145.783875,67.725281 146.548935,67.956284 
	C159.749283,71.942047 171.508957,78.412834 181.022797,88.528839 
	C183.264236,90.912163 185.006073,91.557610 187.614044,89.120018 
	C193.196777,83.902008 198.933014,78.847618 204.632080,73.754990 
	C206.792389,71.824570 206.832855,70.261322 204.704880,68.005310 
	C185.545166,47.692711 161.880005,36.496044 134.305862,33.933037 
	C118.292923,32.444649 102.470268,34.613827 87.393425,40.553925 
	C53.341099,53.970135 31.411427,78.262115 21.490894,114.233864 
	C21.372499,115.520828 21.254107,116.807785 21.064312,117.994354 
M691.332397,198.570206 
	C700.323792,203.407379 710.006042,201.937271 719.528992,201.444397 
	C720.567688,201.390640 722.315735,199.375015 722.355164,198.222198 
	C722.611694,190.719040 722.486877,183.202820 722.486877,175.411896 
	C717.116882,175.707214 712.402039,175.966492 706.999695,176.069092 
	C705.525208,174.189804 702.880981,172.372467 702.777588,170.420517 
	C702.314941,161.685867 702.576294,152.912857 702.576294,143.662567 
	C708.740173,143.662567 714.659180,143.662567 721.049683,143.662567 
	C721.049683,137.050049 720.901550,130.920547 721.110168,124.803200 
	C721.219849,121.587952 719.868347,120.811432 716.969116,120.911354 
	C712.187622,121.076172 707.396301,120.956093 702.274170,120.956093 
	C702.274170,113.445618 702.274170,106.517357 702.274170,99.855042 
	C693.387939,99.855042 684.868896,99.855042 676.090820,99.855042 
	C676.090820,107.183342 676.090820,113.778717 676.090820,120.926430 
	C672.587952,120.926430 669.342529,120.926430 666.051941,120.926430 
	C666.051941,128.857544 666.051941,136.217148 666.051941,143.998291 
	C669.749878,143.998291 672.992676,143.998291 676.824341,143.998291 
	C676.824341,154.566055 676.497009,164.716507 676.916382,174.836014 
	C677.334717,184.929504 681.447205,193.183197 691.332397,198.570206 
M630.373962,126.606148 
	C616.029785,113.591148 589.758301,117.211998 578.342041,133.777435 
	C568.293152,148.358795 568.273193,171.689209 578.297180,186.243744 
	C589.616333,202.678940 613.231750,206.933365 629.072266,195.488022 
	C629.116577,195.186844 629.160889,194.885681 629.434509,194.157288 
	C629.434509,194.157288 629.785645,193.822983 630.546692,194.221054 
	C630.861877,196.295914 631.177002,198.370789 631.562927,200.911285 
	C638.835327,200.911285 645.953613,200.695297 653.050659,200.990036 
	C657.509644,201.175201 658.883362,199.354248 658.830750,195.163528 
	C658.680481,183.202240 658.765808,171.237976 658.763123,159.274872 
	C658.760193,146.074295 658.762451,132.873734 658.762451,119.469803 
	C649.330322,119.469803 640.376099,119.469803 631.118652,119.469803 
	C631.118652,122.185379 631.118652,124.483963 630.373962,126.606148 
M485.408112,180.027054 
	C494.391144,197.821747 515.767944,205.919785 538.449219,200.120270 
	C551.218628,196.855179 561.824463,186.562225 561.417053,177.552689 
	C554.584229,176.492935 547.709167,175.315414 540.794434,174.458191 
	C539.571167,174.306534 538.063904,175.311386 536.889526,176.087479 
	C530.269897,180.462219 519.429626,180.709366 513.323425,175.784561 
	C510.659363,173.635895 509.134674,170.074432 507.092560,167.154572 
	C507.505219,166.578735 507.917908,166.002884 508.330597,165.427048 
	C527.234375,165.427048 546.138123,165.427048 565.463806,165.427048 
	C565.231506,161.035599 565.253174,157.533966 564.829224,154.087143 
	C562.644714,136.323044 550.959961,123.625671 533.683594,120.071388 
	C514.260803,116.075516 495.826355,123.140114 487.201447,138.439987 
	C479.786133,151.594147 479.505920,165.393341 485.408112,180.027054 
M306.726471,123.867287 
	C302.797638,122.541100 298.958038,120.769958 294.925476,119.960876 
	C268.539673,114.666893 247.176575,127.642876 242.035828,151.874786 
	C238.170151,170.096359 245.985107,189.313599 260.580200,196.551804 
	C274.568329,203.488998 288.954102,204.160477 303.486298,198.093674 
	C313.753540,193.807373 319.878662,185.987762 322.808228,175.417542 
	C323.652435,172.371689 323.234009,170.604355 319.488892,170.687500 
	C313.160980,170.827957 306.823578,170.601379 300.499573,170.812103 
	C299.090820,170.859024 297.337494,171.742569 296.396942,172.814743 
	C291.054779,178.904633 284.325378,178.806656 277.577789,176.727936 
	C271.303528,174.795013 268.686676,169.456802 268.235382,163.261398 
	C267.689880,155.773132 268.998840,148.888779 276.498688,144.944489 
	C282.901184,141.577316 289.064789,142.932983 296.081055,149.135315 
	C296.533447,149.535233 297.196075,149.929459 297.763184,149.932709 
	C306.513977,149.982834 315.265167,149.967712 324.454376,149.967712 
	C323.257324,137.472046 317.200317,129.587296 306.726471,123.867287 
M390.633331,199.242950 
	C404.746704,193.567734 414.065735,181.799500 413.065765,170.542297 
	C406.623627,170.542297 400.144287,170.677414 393.674347,170.489502 
	C390.034485,170.383789 387.116058,170.681305 384.636353,174.103729 
	C383.284698,175.969254 380.200226,177.089508 377.715271,177.538528 
	C364.455902,179.934448 355.726440,170.712662 357.911407,156.896378 
	C358.933807,150.431442 362.186615,145.537872 368.665985,143.841187 
	C375.262421,142.113846 381.598572,142.587265 386.188995,148.747910 
	C386.736023,149.482040 387.619049,150.468567 388.358826,150.479385 
	C396.755615,150.601944 405.154846,150.557159 413.966309,150.557159 
	C412.975037,142.091461 410.507416,135.305847 404.766571,130.221359 
	C390.323700,117.429817 373.491089,115.760704 356.141693,121.966469 
	C339.785980,127.816803 332.603394,141.093628 331.407532,157.961716 
	C330.164917,175.488831 338.995300,191.813187 353.314148,197.730530 
	C365.235321,202.657013 377.466888,203.540329 390.633331,199.242950 
M104.341194,110.840324 
	C90.356331,123.356163 87.320343,138.864929 93.923637,155.711563 
	C99.620148,170.244827 111.694595,178.540970 127.012276,179.525528 
	C142.038269,180.491348 154.878433,174.405136 164.750290,161.604111 
	C153.321472,154.604935 142.515640,147.987289 131.107834,141.000977 
	C142.560486,133.499344 153.260971,126.490395 163.984955,119.466049 
	C149.399155,99.634552 122.212898,95.828545 104.341194,110.840324 
M471.659760,118.321800 
	C463.408905,118.981346 456.993225,122.827911 451.737091,129.518707 
	C451.737091,126.448036 451.737091,123.377365 451.737091,120.296616 
	C443.027771,120.296616 434.799835,120.296616 426.455750,120.296616 
	C426.455750,146.918915 426.455750,173.147537 426.455750,199.636215 
	C435.261993,199.636215 443.642883,199.636215 452.542816,199.636215 
	C452.542816,186.830994 452.269043,174.524200 452.621826,162.235397 
	C452.957245,150.551224 458.231903,145.788971 469.916626,145.629486 
	C471.082458,145.613571 472.274323,145.524277 473.410889,145.720032 
	C476.838043,146.310318 477.833649,144.674240 477.784576,141.532761 
	C477.690857,135.535416 477.539032,129.520081 477.894196,123.540909 
	C478.152863,119.185745 476.386047,117.816597 471.659760,118.321800 
z"/>
<path fill="#F9F2FA" opacity="1.000000" stroke="none" 
	d="
M53.082909,158.978226 
	C60.761955,184.499146 76.458382,202.683304 102.182343,210.881241 
	C137.577377,222.161224 173.443878,208.399765 192.857986,176.697723 
	C193.638229,175.423630 194.466309,174.176865 195.201294,172.877335 
	C199.437958,165.386597 199.422699,165.398560 206.969223,169.176331 
	C211.569077,171.479050 216.079803,174.025665 220.852875,175.895142 
	C224.491272,177.320221 224.751617,179.083298 223.346390,182.342453 
	C213.245773,205.769104 196.867050,223.527939 173.896606,234.314819 
	C135.660080,252.270630 98.316269,249.572815 63.253181,225.895584 
	C44.199451,213.029068 31.243326,195.012070 24.331970,172.155624 
	C23.965084,170.815155 23.630396,170.194275 23.295708,169.573395 
	C23.295708,169.573395 23.293875,169.326477 23.335720,168.855408 
	C23.043535,167.754135 22.709507,167.123932 22.375477,166.493744 
	C22.375477,166.493744 22.395187,166.292801 22.469578,165.806473 
	C22.058727,163.848373 21.573488,162.376602 21.088249,160.904831 
	C21.088247,160.904831 21.050816,160.977936 21.244207,160.552292 
	C20.906107,152.359009 20.042250,144.595413 19.947994,136.822479 
	C19.872213,130.573074 20.728090,124.312370 21.170574,118.056686 
	C21.170574,118.056686 21.064312,117.994354 21.429832,117.840042 
	C21.922256,116.394798 22.049160,115.103867 22.176062,113.812935 
	C31.411427,78.262115 53.341099,53.970135 87.393425,40.553925 
	C102.470268,34.613827 118.292923,32.444649 134.305862,33.933037 
	C161.880005,36.496044 185.545166,47.692711 204.704880,68.005310 
	C206.832855,70.261322 206.792389,71.824570 204.632080,73.754990 
	C198.933014,78.847618 193.196777,83.902008 187.614044,89.120018 
	C185.006073,91.557610 183.264236,90.912163 181.022797,88.528839 
	C171.508957,78.412834 159.749283,71.942047 146.548935,67.956284 
	C145.783875,67.725281 144.905777,67.868637 143.598572,67.432686 
	C141.289627,66.446526 139.499939,65.574493 137.628876,65.332954 
	C127.654572,64.045357 117.677986,63.210182 108.001816,67.102341 
	C92.702606,71.049454 79.307594,78.134163 69.039719,90.496231 
	C61.316154,99.795059 56.057606,110.332405 52.550591,122.639221 
	C49.681339,135.291077 49.869072,147.168488 53.082909,158.978226 
z"/>
<path fill="#F8F3F9" opacity="1.000000" stroke="none" 
	d="
M628.553833,195.297668 
	C613.231750,206.933365 589.616333,202.678940 578.297180,186.243744 
	C568.273193,171.689209 568.293152,148.358795 578.342041,133.777435 
	C589.758301,117.211998 616.029785,113.591148 631.098389,126.757599 
	C632.098389,125.002823 632.373962,123.096603 632.671936,121.035545 
	C640.718506,121.035545 648.446167,121.035545 656.591553,121.035545 
	C656.591553,147.290802 656.591553,173.258530 656.591553,199.496872 
	C648.408936,199.496872 640.554626,199.496872 632.198364,199.496872 
	C632.198364,196.481613 632.198364,193.827286 632.198364,191.172974 
	C631.906372,191.117950 631.614319,191.062943 631.322327,191.007919 
	C630.810059,191.946274 630.297852,192.884628 629.785645,193.822968 
	C629.785645,193.822983 629.434509,194.157288 629.157593,194.433014 
	C628.672791,194.850235 628.563843,195.046539 628.553833,195.297668 
M596.004883,156.942764 
	C596.020081,159.265686 595.788452,161.621780 596.095459,163.905472 
	C597.135925,171.644791 601.899719,176.537872 609.520020,177.989563 
	C617.766663,179.560562 626.322388,176.499298 629.655212,170.305496 
	C633.502625,163.155426 633.514771,155.628693 628.918152,148.961670 
	C624.417603,142.434052 617.375671,140.805161 609.803223,142.107956 
	C602.002502,143.450027 597.615173,148.414627 596.004883,156.942764 
z"/>
<path fill="#F7F1F8" opacity="1.000000" stroke="none" 
	d="
M485.215363,179.698425 
	C479.505920,165.393341 479.786133,151.594147 487.201447,138.439987 
	C495.826355,123.140114 514.260803,116.075516 533.683594,120.071388 
	C550.959961,123.625671 562.644714,136.323044 564.829224,154.087143 
	C565.253174,157.533966 565.231506,161.035599 565.463806,165.427048 
	C546.138123,165.427048 527.234375,165.427048 508.330597,165.427048 
	C507.917908,166.002884 507.505219,166.578735 507.092560,167.154572 
	C509.134674,170.074432 510.659363,173.635895 513.323425,175.784561 
	C519.429626,180.709366 530.269897,180.462219 536.889526,176.087479 
	C538.063904,175.311386 539.571167,174.306534 540.794434,174.458191 
	C547.709167,175.315414 554.584229,176.492935 561.417053,177.552689 
	C561.824463,186.562225 551.218628,196.855179 538.449219,200.120270 
	C515.767944,205.919785 494.391144,197.821747 485.215363,179.698425 
M508.204590,152.838135 
	C518.543518,153.291763 528.882507,153.745377 539.492432,154.210892 
	C537.788147,145.726608 533.182190,141.722427 525.463196,140.974030 
	C516.575012,140.112274 511.825134,143.175644 508.204590,152.838135 
z"/>
<path fill="#F6F2F8" opacity="1.000000" stroke="none" 
	d="
M734.219482,142.029785 
	C737.157654,133.989502 743.125854,128.493698 750.347961,124.710495 
	C765.216553,116.921745 780.475464,116.614014 795.180298,125.095177 
	C809.804199,133.529724 815.029602,147.221878 814.928223,163.447006 
	C814.925232,163.926712 814.715027,164.405106 814.437561,165.574890 
	C795.492737,165.574890 776.419800,165.574890 757.346802,165.574890 
	C756.929688,166.065384 756.512634,166.555862 756.095520,167.046356 
	C757.944458,169.893326 759.289673,173.311783 761.742432,175.473648 
	C767.665894,180.694672 779.614502,180.589737 786.124634,175.941010 
	C787.130615,175.222641 788.466431,174.286713 789.521179,174.425735 
	C796.729492,175.375748 803.903503,176.586121 812.384094,177.915665 
	C810.213440,181.817032 808.710938,185.439804 806.418457,188.463837 
	C799.694336,197.333817 790.048401,200.772903 779.410034,201.468491 
	C762.795959,202.554794 747.992554,198.705032 737.252808,183.965485 
	C736.555664,182.826935 736.066223,182.242599 735.576843,181.658279 
	C735.576843,181.658279 735.509766,181.539459 735.512939,181.222839 
	C735.195496,180.517181 734.874939,180.128159 734.554443,179.739120 
	C734.554443,179.739105 734.512573,179.603073 734.461426,179.165833 
	C729.660889,167.361404 730.125854,155.818802 733.248352,144.186813 
	C733.248352,144.186813 733.002441,144.000610 733.405457,143.939606 
	C733.945496,143.262344 734.082458,142.646057 734.219482,142.029785 
M786.840637,153.565613 
	C789.570251,153.559402 789.227600,152.041779 788.497620,150.268295 
	C786.026184,144.263931 781.338867,141.309021 775.084900,140.655518 
	C768.953613,140.014816 763.418396,141.352814 759.661926,146.641708 
	C758.334045,148.511276 757.764282,150.919250 756.637878,153.578461 
	C767.066467,153.578461 776.514587,153.578461 786.840637,153.565613 
z"/>
<path fill="#F8F0F8" opacity="1.000000" stroke="none" 
	d="
M307.035889,124.065910 
	C317.200317,129.587296 323.257324,137.472046 324.454376,149.967712 
	C315.265167,149.967712 306.513977,149.982834 297.763184,149.932709 
	C297.196075,149.929459 296.533447,149.535233 296.081055,149.135315 
	C289.064789,142.932983 282.901184,141.577316 276.498688,144.944489 
	C268.998840,148.888779 267.689880,155.773132 268.235382,163.261398 
	C268.686676,169.456802 271.303528,174.795013 277.577789,176.727936 
	C284.325378,178.806656 291.054779,178.904633 296.396942,172.814743 
	C297.337494,171.742569 299.090820,170.859024 300.499573,170.812103 
	C306.823578,170.601379 313.160980,170.827957 319.488892,170.687500 
	C323.234009,170.604355 323.652435,172.371689 322.808228,175.417542 
	C319.878662,185.987762 313.753540,193.807373 303.486298,198.093674 
	C288.954102,204.160477 274.568329,203.488998 260.580200,196.551804 
	C245.985107,189.313599 238.170151,170.096359 242.035828,151.874786 
	C247.176575,127.642876 268.539673,114.666893 294.925476,119.960876 
	C298.958038,120.769958 302.797638,122.541100 307.035889,124.065910 
z"/>
<path fill="#F8F1F9" opacity="1.000000" stroke="none" 
	d="
M390.252563,199.346359 
	C377.466888,203.540329 365.235321,202.657013 353.314148,197.730530 
	C338.995300,191.813187 330.164917,175.488831 331.407532,157.961716 
	C332.603394,141.093628 339.785980,127.816803 356.141693,121.966469 
	C373.491089,115.760704 390.323700,117.429817 404.766571,130.221359 
	C410.507416,135.305847 412.975037,142.091461 413.966309,150.557159 
	C405.154846,150.557159 396.755615,150.601944 388.358826,150.479385 
	C387.619049,150.468567 386.736023,149.482040 386.188995,148.747910 
	C381.598572,142.587265 375.262421,142.113846 368.665985,143.841187 
	C362.186615,145.537872 358.933807,150.431442 357.911407,156.896378 
	C355.726440,170.712662 364.455902,179.934448 377.715271,177.538528 
	C380.200226,177.089508 383.284698,175.969254 384.636353,174.103729 
	C387.116058,170.681305 390.034485,170.383789 393.674347,170.489502 
	C400.144287,170.677414 406.623627,170.542297 413.065765,170.542297 
	C414.065735,181.799500 404.746704,193.567734 390.252563,199.346359 
z"/>
<path fill="#F9F2FA" opacity="1.000000" stroke="none" 
	d="
M104.595467,110.595261 
	C122.212898,95.828545 149.399155,99.634552 163.984955,119.466049 
	C153.260971,126.490395 142.560486,133.499344 131.107834,141.000977 
	C142.515640,147.987289 153.321472,154.604935 164.750290,161.604111 
	C154.878433,174.405136 142.038269,180.491348 127.012276,179.525528 
	C111.694595,178.540970 99.620148,170.244827 93.923637,155.711563 
	C87.320343,138.864929 90.356331,123.356163 104.595467,110.595261 
z"/>
<path fill="#F8F4F9" opacity="1.000000" stroke="none" 
	d="
M690.992065,197.913376 
	C681.447205,193.183197 677.334717,184.929504 676.916382,174.836014 
	C676.497009,164.716507 676.824341,154.566055 676.824341,143.998291 
	C672.992676,143.998291 669.749878,143.998291 666.051941,143.998291 
	C666.051941,136.217148 666.051941,128.857544 666.051941,120.926430 
	C669.342529,120.926430 672.587952,120.926430 676.090820,120.926430 
	C676.090820,113.778717 676.090820,107.183342 676.090820,99.855042 
	C684.868896,99.855042 693.387939,99.855042 702.274170,99.855042 
	C702.274170,106.517357 702.274170,113.445618 702.274170,120.956093 
	C707.396301,120.956093 712.187622,121.076172 716.969116,120.911354 
	C719.868347,120.811432 721.219849,121.587952 721.110168,124.803200 
	C720.901550,130.920547 721.049683,137.050049 721.049683,143.662567 
	C714.659180,143.662567 708.740173,143.662567 702.576294,143.662567 
	C702.576294,152.912857 702.314941,161.685867 702.777588,170.420517 
	C702.880981,172.372467 705.525208,174.189804 707.628540,176.411224 
	C712.337158,177.028259 716.417053,177.303146 720.788208,177.597672 
	C720.788208,184.957428 720.788208,192.286819 720.788208,199.757355 
	C710.468994,201.231979 700.656738,200.849930 690.992065,197.913376 
z"/>
<path fill="#F5EEF7" opacity="1.000000" stroke="none" 
	d="
M472.032776,118.354744 
	C476.386047,117.816597 478.152863,119.185745 477.894196,123.540909 
	C477.539032,129.520081 477.690857,135.535416 477.784576,141.532761 
	C477.833649,144.674240 476.838043,146.310318 473.410889,145.720032 
	C472.274323,145.524277 471.082458,145.613571 469.916626,145.629486 
	C458.231903,145.788971 452.957245,150.551224 452.621826,162.235397 
	C452.269043,174.524200 452.542816,186.830994 452.542816,199.636215 
	C443.642883,199.636215 435.261993,199.636215 426.455750,199.636215 
	C426.455750,173.147537 426.455750,146.918915 426.455750,120.296616 
	C434.799835,120.296616 443.027771,120.296616 451.737091,120.296616 
	C451.737091,123.377365 451.737091,126.448036 451.737091,129.518707 
	C456.993225,122.827911 463.408905,118.981346 472.032776,118.354744 
z"/>
<path fill="#65377D" opacity="1.000000" stroke="none" 
	d="
M630.166138,194.022003 
	C630.297852,192.884628 630.810059,191.946274 631.322327,191.007919 
	C631.614319,191.062943 631.906372,191.117950 632.198364,191.172974 
	C632.198364,193.827286 632.198364,196.481613 632.198364,199.496872 
	C640.554626,199.496872 648.408936,199.496872 656.591553,199.496872 
	C656.591553,173.258530 656.591553,147.290802 656.591553,121.035545 
	C648.446167,121.035545 640.718506,121.035545 632.671936,121.035545 
	C632.373962,123.096603 632.098389,125.002823 631.470703,126.845795 
	C631.118652,124.483963 631.118652,122.185379 631.118652,119.469803 
	C640.376099,119.469803 649.330322,119.469803 658.762451,119.469803 
	C658.762451,132.873734 658.760193,146.074295 658.763123,159.274872 
	C658.765808,171.237976 658.680481,183.202240 658.830750,195.163528 
	C658.883362,199.354248 657.509644,201.175201 653.050659,200.990036 
	C645.953613,200.695297 638.835327,200.911285 631.562927,200.911285 
	C631.177002,198.370789 630.861877,196.295914 630.166138,194.022003 
z"/>
<path fill="#5B3676" opacity="1.000000" stroke="none" 
	d="
M691.162231,198.241791 
	C700.656738,200.849930 710.468994,201.231979 720.788208,199.757355 
	C720.788208,192.286819 720.788208,184.957428 720.788208,177.597672 
	C716.417053,177.303146 712.337158,177.028259 707.972229,176.489578 
	C712.402039,175.966492 717.116882,175.707214 722.486877,175.411896 
	C722.486877,183.202820 722.611694,190.719040 722.355164,198.222198 
	C722.315735,199.375015 720.567688,201.390640 719.528992,201.444397 
	C710.006042,201.937271 700.323792,203.407379 691.162231,198.241791 
z"/>
<path fill="#53336E" opacity="1.000000" stroke="none" 
	d="
M732.892029,144.293213 
	C730.125854,155.818802 729.660889,167.361404 734.421387,179.106949 
	C732.688538,175.390488 730.044312,171.432465 729.396667,167.171005 
	C728.222046,159.442764 729.054626,151.653458 732.892029,144.293213 
z"/>
<path fill="#962477" opacity="1.000000" stroke="none" 
	d="
M20.795134,118.214935 
	C20.728090,124.312370 19.872213,130.573074 19.947994,136.822479 
	C20.042250,144.595413 20.906107,152.359009 21.285265,160.551544 
	C20.761816,160.321365 20.175476,159.704514 20.051409,159.005585 
	C17.643856,145.442596 17.613363,131.892883 20.795134,118.214935 
z"/>
<path fill="#8F1F7A" opacity="1.000000" stroke="none" 
	d="
M108.448784,67.090981 
	C117.677986,63.210182 127.654572,64.045357 137.628876,65.332954 
	C139.499939,65.574493 141.289627,66.446526 143.200302,67.419563 
	C133.644119,67.467354 124.005272,67.097969 114.364182,66.801392 
	C112.545944,66.745453 110.718788,66.979424 108.448784,67.090981 
z"/>
<path fill="#95237C" opacity="1.000000" stroke="none" 
	d="
M53.366013,158.723938 
	C49.869072,147.168488 49.681339,135.291077 52.538017,123.025864 
	C52.520885,127.120605 51.901649,131.553360 52.061062,135.957932 
	C52.332985,143.471146 53.093723,150.966675 53.366013,158.723938 
z"/>
<path fill="#962477" opacity="1.000000" stroke="none" 
	d="
M21.022518,161.312256 
	C21.573488,162.376602 22.058727,163.848373 22.415436,165.721252 
	C21.843531,164.654816 21.400158,163.187241 21.022518,161.312256 
z"/>
<path fill="#53336E" opacity="1.000000" stroke="none" 
	d="
M735.451538,181.989441 
	C736.066223,182.242599 736.555664,182.826935 737.044434,183.707458 
	C736.471252,183.442642 735.898682,182.881638 735.451538,181.989441 
z"/>
<path fill="#962477" opacity="1.000000" stroke="none" 
	d="
M21.833477,114.023399 
	C22.049160,115.103867 21.922256,116.394798 21.465532,117.890244 
	C21.254107,116.807785 21.372499,115.520828 21.833477,114.023399 
z"/>
<path fill="#962477" opacity="1.000000" stroke="none" 
	d="
M23.167463,169.944763 
	C23.630396,170.194275 23.965084,170.815155 24.224464,171.797195 
	C23.779175,171.544281 23.409197,170.930222 23.167463,169.944763 
z"/>
<path fill="#962477" opacity="1.000000" stroke="none" 
	d="
M22.240068,166.866394 
	C22.709507,167.123932 23.043535,167.754135 23.274563,168.748138 
	C22.815929,168.487671 22.460295,167.863358 22.240068,166.866394 
z"/>
<path fill="#53336E" opacity="1.000000" stroke="none" 
	d="
M733.925415,142.186676 
	C734.082458,142.646057 733.945496,143.262344 733.526611,144.034973 
	C733.373596,143.575424 733.502502,142.959503 733.925415,142.186676 
z"/>
<path fill="#53336E" opacity="1.000000" stroke="none" 
	d="
M734.416504,180.031265 
	C734.874939,180.128159 735.195496,180.517181 735.472534,181.167831 
	C735.045593,181.060776 734.662170,180.692093 734.416504,180.031265 
z"/>
<path fill="#65377D" opacity="1.000000" stroke="none" 
	d="
M628.813049,195.392853 
	C628.563843,195.046539 628.672791,194.850235 629.042969,194.646637 
	C629.160889,194.885681 629.116577,195.186844 628.813049,195.392853 
z"/>
<path fill="#09050A" opacity="1.000000" stroke="none" 
	d="
M596.068970,156.512085 
	C597.615173,148.414627 602.002502,143.450027 609.803223,142.107956 
	C617.375671,140.805161 624.417603,142.434052 628.918152,148.961670 
	C633.514771,155.628693 633.502625,163.155426 629.655212,170.305496 
	C626.322388,176.499298 617.766663,179.560562 609.520020,177.989563 
	C601.899719,176.537872 597.135925,171.644791 596.095459,163.905472 
	C595.788452,161.621780 596.020081,159.265686 596.068970,156.512085 
z"/>
<path fill="#190D1C" opacity="1.000000" stroke="none" 
	d="
M508.259033,152.436340 
	C511.825134,143.175644 516.575012,140.112274 525.463196,140.974030 
	C533.182190,141.722427 537.788147,145.726608 539.492432,154.210892 
	C528.882507,153.745377 518.543518,153.291763 508.259033,152.436340 
z"/>
<path fill="#17101C" opacity="1.000000" stroke="none" 
	d="
M786.401611,153.572037 
	C776.514587,153.578461 767.066467,153.578461 756.637878,153.578461 
	C757.764282,150.919250 758.334045,148.511276 759.661926,146.641708 
	C763.418396,141.352814 768.953613,140.014816 775.084900,140.655518 
	C781.338867,141.309021 786.026184,144.263931 788.497620,150.268295 
	C789.227600,152.041779 789.570251,153.559402 786.401611,153.572037 
z"/>
</svg>